# xmcd
#
# Track frame offsets:
#	150
#	7356
#	22805
#	39155
#	58697
#	86241
#	113521
#	139325
#	157956
#	189153
#	202225
#	231543
#	266236
#	289101
#	322649
#
# Disc length: 4501 seconds
#
# Revision: 1
# Processed by: cddbd v1.5.1PL0 Copyright (c) Steve Scherf et al.
# Submitted via: EasyCDDAExtractor 8.0.2.1
#
DISCID=d011930f
DTITLE=Iron Maiden - Egillshöll Reykjavik 08-06-05
DYEAR=2005
DGENRE=Metal
TTITLE0=The Ides Of March
TTITLE1=Murders In The Rue Mourge
TTITLE2=Another Life 
TTITLE3=Prowler 
TTITLE4=The Trooper 
TTITLE5=Remember Tomorrow
TTITLE6=Where Eagles Dare 
TTITLE7=Run To The Hills 
TTITLE8=Revelations 
TTITLE9=Wrathchild
TTITLE10=Die With Your Boots On 
TTITLE11=Phantom Of The Opera
TTITLE12=Number Of The Beast 
TTITLE13=Hallowed Be Thy Name 
TTITLE14=Iron Maiden
EXTD=
EXTT0=
EXTT1=
EXTT2=
EXTT3=
EXTT4=
EXTT5=
EXTT6=
EXTT7=
EXTT8=
EXTT9=
EXTT10=
EXTT11=
EXTT12=
EXTT13=
EXTT14=
PLAYORDER=
